<mxfile host="app.diagrams.net" modified="2024-02-12T05:49:52.028Z" agent="Mozilla/5.0 (Windows NT 10.0; Win64; x64) AppleWebKit/537.36 (KHTML, like Gecko) Chrome/121.0.0.0 Safari/537.36 Edg/121.0.0.0" version="23.1.2" etag="JvLiMCviy4kp5obQKAu6" type="github">
  <diagram name="ページ1" id="N00txu2tmXYmP9rLYN-9">
    <mxGraphModel>
      <root>
        <mxCell id="0" />
        <mxCell id="1" parent="0" />
      </root>
    </mxGraphModel>
  </diagram>
</mxfile>
